<svg width="285" height="39" viewBox="0 0 285 39" fill="none" xmlns="http://www.w3.org/2000/svg"><path d="M8.084 1.388V12.71l7.81-11.323h9.092l-13.208 13.27 24.116-13.27v8.425L14.24 17.817l21.653-1.998v8.004L14.24 21.825l21.653 8.004v8.425l-24.116-13.27 13.208 13.27h-9.1L8.078 26.93v11.323H.592V1.388h7.492z" fill="url(#a)"/><path d="M41.234 1.388h8.82L48.72 25.24 59.68 1.388h7.22v36.86h-8.822l1.336-23.852-10.96 23.852h-7.22V1.388z" fill="url(#b)"/><path d="M72.246 1.388h8.82v14.22h7.486V1.388h8.821v36.86h-8.82v-16.85h-7.486v16.85h-8.821V1.388z" fill="url(#c)"/><path d="M101.437 19.82c0-10.53 4.919-19.166 14.809-19.166s14.809 8.636 14.809 19.167c0 10.531-4.919 19.167-14.809 19.167s-14.809-8.636-14.809-19.167zm14.809 13.692c3.474 0 5.509-6.058 5.509-13.691 0-7.634-2.035-13.69-5.509-13.69s-5.509 6.056-5.509 13.69c.006 7.633 2.035 13.69 5.509 13.69z" fill="url(#d)"/><path d="M135.119 1.388h25.399v36.86h-8.821V7.177h-7.751v31.07h-8.821V1.388h-.006z" fill="url(#e)"/><path d="M164.581 19.82c0-10.53 4.92-19.166 14.81-19.166S194.2 9.29 194.2 19.82c0 10.531-4.919 19.167-14.809 19.167s-14.81-8.636-14.81-19.167zm14.816 13.692c3.474 0 5.509-6.058 5.509-13.691 0-7.634-2.035-13.69-5.509-13.69s-5.509 6.056-5.509 13.69c0 7.633 2.029 13.69 5.509 13.69z" fill="url(#f)"/><path d="M198.27 1.388h8.821l-1.335 23.852 10.959-23.852h7.22v36.86h-8.821l1.335-23.852-10.959 23.852h-7.22V1.388z" fill="url(#g)"/><path d="M247.403 25.24l8.393 1.264-.266 1.263c-1.445 6.849-5.827 11.215-13.046 11.215-9.89 0-14.492-8.636-14.492-19.168 0-10.53 4.602-19.167 14.492-19.167 6.954 0 11.387 4.373 12.942 10.793l.266 1.105-8.607 1.895c-.641-5.106-2.19-8.323-4.601-8.323-3.474 0-5.185 6.058-5.185 13.691 0 7.634 1.711 13.69 5.185 13.69 2.624.014 4.277-3.414 4.919-8.258z" fill="url(#h)"/><path d="M259.432 1.388h8.82v16.588l7.22-16.588h9.093L274.137 19.24l10.694 19.008h-9.89l-6.682-16.589v16.589h-8.821V1.388h-.006z" fill="url(#i)"/><defs><radialGradient id="a" cx="0" cy="0" r="1" gradientUnits="userSpaceOnUse" gradientTransform="rotate(1.97 -40.076 17.903) scale(340.588 49.1833)"><stop offset=".5" stop-color="#F50"/><stop offset="1" stop-color="#BDF700"/></radialGradient><radialGradient id="b" cx="0" cy="0" r="1" gradientUnits="userSpaceOnUse" gradientTransform="rotate(1.97 -40.076 17.903) scale(340.588 49.1833)"><stop offset=".5" stop-color="#F50"/><stop offset="1" stop-color="#BDF700"/></radialGradient><radialGradient id="c" cx="0" cy="0" r="1" gradientUnits="userSpaceOnUse" gradientTransform="rotate(1.97 -40.076 17.903) scale(340.588 49.1833)"><stop offset=".5" stop-color="#F50"/><stop offset="1" stop-color="#BDF700"/></radialGradient><radialGradient id="d" cx="0" cy="0" r="1" gradientUnits="userSpaceOnUse" gradientTransform="rotate(1.97 -40.076 17.903) scale(340.588 49.1833)"><stop offset=".5" stop-color="#F50"/><stop offset="1" stop-color="#BDF700"/></radialGradient><radialGradient id="e" cx="0" cy="0" r="1" gradientUnits="userSpaceOnUse" gradientTransform="rotate(1.97 -40.076 17.903) scale(340.588 49.1833)"><stop offset=".5" stop-color="#F50"/><stop offset="1" stop-color="#BDF700"/></radialGradient><radialGradient id="f" cx="0" cy="0" r="1" gradientUnits="userSpaceOnUse" gradientTransform="rotate(1.97 -40.076 17.903) scale(340.588 49.1833)"><stop offset=".5" stop-color="#F50"/><stop offset="1" stop-color="#BDF700"/></radialGradient><radialGradient id="g" cx="0" cy="0" r="1" gradientUnits="userSpaceOnUse" gradientTransform="rotate(1.97 -40.076 17.903) scale(340.588 49.1833)"><stop offset=".5" stop-color="#F50"/><stop offset="1" stop-color="#BDF700"/></radialGradient><radialGradient id="h" cx="0" cy="0" r="1" gradientUnits="userSpaceOnUse" gradientTransform="rotate(1.97 -40.076 17.903) scale(340.588 49.1833)"><stop offset=".5" stop-color="#F50"/><stop offset="1" stop-color="#BDF700"/></radialGradient><radialGradient id="i" cx="0" cy="0" r="1" gradientUnits="userSpaceOnUse" gradientTransform="rotate(1.97 -40.076 17.903) scale(340.588 49.1833)"><stop offset=".5" stop-color="#F50"/><stop offset="1" stop-color="#BDF700"/></radialGradient></defs></svg>